<svg width="24" height="24" viewBox="0 0 24 24" fill="none" xmlns="http://www.w3.org/2000/svg">
    <path
        d="M18 1.5C18.3978 1.5 18.7794 1.65804 19.0607 1.93934C19.342 2.22064 19.5 2.60218 19.5 3V6C19.5 6.39782 19.342 6.77936 19.0607 7.06066C18.7794 7.34196 18.3978 7.5 18 7.5H15C14.6022 7.5 14.2206 7.34196 13.9393 7.06066C13.658 6.77936 13.5 6.39782 13.5 6V3C13.5 2.60218 13.658 2.22064 13.9393 1.93934C14.2206 1.65804 14.6022 1.5 15 1.5L18 1.5ZM18 9C18.3978 9 18.7794 9.15804 19.0607 9.43934C19.342 9.72064 19.5 10.1022 19.5 10.5V13.5C19.5 13.8978 19.342 14.2794 19.0607 14.5607C18.7794 14.842 18.3978 15 18 15H15C14.6022 15 14.2206 14.842 13.9393 14.5607C13.658 14.2794 13.5 13.8978 13.5 13.5V10.5C13.5 10.1022 13.658 9.72064 13.9393 9.43934C14.2206 9.15804 14.6022 9 15 9H18ZM18 16.5C18.3978 16.5 18.7794 16.658 19.0607 16.9393C19.342 17.2206 19.5 17.6022 19.5 18V21C19.5 21.3978 19.342 21.7794 19.0607 22.0607C18.7794 22.342 18.3978 22.5 18 22.5H15C14.6022 22.5 14.2206 22.342 13.9393 22.0607C13.658 21.7794 13.5 21.3978 13.5 21V18C13.5 17.6022 13.658 17.2206 13.9393 16.9393C14.2206 16.658 14.6022 16.5 15 16.5H18ZM10.5 1.5C10.8978 1.5 11.2794 1.65804 11.5607 1.93934C11.842 2.22064 12 2.60218 12 3V6C12 6.39782 11.842 6.77936 11.5607 7.06066C11.2794 7.34196 10.8978 7.5 10.5 7.5H7.5C7.10218 7.5 6.72064 7.34196 6.43934 7.06066C6.15804 6.77936 6 6.39782 6 6V3C6 2.60218 6.15804 2.22064 6.43934 1.93934C6.72064 1.65804 7.10218 1.5 7.5 1.5L10.5 1.5ZM10.5 9C10.8978 9 11.2794 9.15804 11.5607 9.43934C11.842 9.72064 12 10.1022 12 10.5V13.5C12 13.8978 11.842 14.2794 11.5607 14.5607C11.2794 14.842 10.8978 15 10.5 15H7.5C7.10218 15 6.72064 14.842 6.43934 14.5607C6.15804 14.2794 6 13.8978 6 13.5V10.5C6 10.1022 6.15804 9.72064 6.43934 9.43934C6.72064 9.15804 7.10218 9 7.5 9H10.5ZM10.5 16.5C10.8978 16.5 11.2794 16.658 11.5607 16.9393C11.842 17.2206 12 17.6022 12 18V21C12 21.3978 11.842 21.7794 11.5607 22.0607C11.2794 22.342 10.8978 22.5 10.5 22.5H7.5C7.10218 22.5 6.72064 22.342 6.43934 22.0607C6.15804 21.7794 6 21.3978 6 21V18C6 17.6022 6.15804 17.2206 6.43934 16.9393C6.72064 16.658 7.10218 16.5 7.5 16.5H10.5Z"
        fill="#48A7F8" />
</svg>
