<svg width="184" height="134" viewBox="0 0 184 134" fill="none" xmlns="http://www.w3.org/2000/svg">
    <path
        d="M161.277 14.2717C164.539 14.2717 167.184 11.6111 167.184 8.32919C167.184 5.04725 164.539 2.38672 161.277 2.38672C158.015 2.38672 155.371 5.04725 155.371 8.32919C155.371 11.6111 158.015 14.2717 161.277 14.2717Z"
        fill="#EAEEF9" />
    <path
        d="M4.38574 46.4069C6.53178 46.4069 8.27148 44.6566 8.27148 42.4974C8.27148 40.3382 6.53178 38.5879 4.38574 38.5879C2.23971 38.5879 0.5 40.3382 0.5 42.4974C0.5 44.6566 2.23971 46.4069 4.38574 46.4069Z"
        fill="#EAEEF9" />
    <path
        d="M22.248 116.694C24.3941 116.694 26.1338 114.944 26.1338 112.785C26.1338 110.625 24.3941 108.875 22.248 108.875C20.102 108.875 18.3623 110.625 18.3623 112.785C18.3623 114.944 20.102 116.694 22.248 116.694Z"
        fill="#EAEEF9" />
    <path d="M43.0176 116.693L97.5454 99.5176V29.0996L43.0176 46.1426V116.693Z" fill="#B7BFCD" />
    <path opacity="0.4" d="M152.074 116.693L97.5459 99.5176V29.0996L152.074 46.1426V116.693Z"
        fill="#6D7C9A" />
    <g opacity="0.13">
        <path d="M43.0176 116.693L97.5454 99.5176V29.0996L43.0176 46.1426V116.693Z"
            fill="url(#paint0_linear_17349_19579)" />
        <path d="M152.073 116.693L97.5454 99.5176V29.0996L152.073 46.1426V116.693Z"
            fill="url(#paint1_linear_17349_19579)" />
    </g>
    <path d="M97.5454 133.999L43.0176 116.824V46.4062L97.5454 63.5814V133.999Z" fill="#EDF1F9" />
    <path d="M97.5459 133.999L152.074 116.824V46.4062L97.5459 63.5814V133.999Z" fill="#DAE1ED" />
    <path opacity="0.09" d="M85.191 121.58L43.0176 116.824V46.4062L97.5454 63.5814L85.191 121.58Z"
        fill="url(#paint2_linear_17349_19579)" />
    <path opacity="0.2" d="M109.9 109.161L152.074 116.824V46.4062L97.5459 63.5814L109.9 109.161Z"
        fill="url(#paint3_linear_17349_19579)" />
    <path d="M97.5457 29.0995L71.9085 9.81055L16.4697 28.5711L43.0179 46.1425L97.5457 29.0995Z"
        fill="#DAE1ED" />
    <path d="M97.5459 29.0995L123.183 9.81055L178.622 28.5711L152.074 46.1425L97.5459 29.0995Z"
        fill="#DAE1ED" />
    <path d="M43.0179 46.4062L97.5457 63.5814L70.3469 81.0207L16.4697 63.0529L43.0179 46.4062Z"
        fill="#EFF4FD" />
    <path d="M152.074 46.4062L97.5459 63.5814L124.745 81.0207L178.622 63.0529L152.074 46.4062Z"
        fill="#EDF1F9" />
    <path
        d="M26.1328 3.39975H22.7508V0H19.8518V3.39975H16.4697V6.41096H19.8518V9.81071H22.7508V6.41096H26.1328V3.39975Z"
        fill="url(#paint4_linear_17349_19579)" />
    <path
        d="M33.5625 88.6986H30.1804V85.2988H27.2815V88.6986H23.8994V91.7098H27.2815V95.1095H30.1804V91.7098H33.5625V88.6986Z"
        fill="url(#paint5_linear_17349_19579)" />
    <path
        d="M181.411 88.8905L177.272 86.7904L179.362 82.6307L175.815 80.8306L173.726 84.9903L169.588 82.8901L167.737 86.5744L171.875 88.6745L169.786 92.8342L173.333 94.6343L175.422 90.4746L179.56 92.5748L181.411 88.8905Z"
        fill="url(#paint6_linear_17349_19579)" />
    <defs>
        <linearGradient id="paint0_linear_17349_19579" x1="80.3322" y1="34.1996" x2="72.8212"
            y2="65.3065" gradientUnits="userSpaceOnUse">
            <stop offset="0.00289017" stop-color="#606673" stop-opacity="0" />
            <stop offset="1" stop-color="#373C47" />
        </linearGradient>
        <linearGradient id="paint1_linear_17349_19579" x1="80.3322" y1="34.1996" x2="72.8212"
            y2="65.3065" gradientUnits="userSpaceOnUse">
            <stop offset="0.00289017" stop-color="#606673" stop-opacity="0" />
            <stop offset="1" stop-color="#373C47" />
        </linearGradient>
        <linearGradient id="paint2_linear_17349_19579" x1="55.2424" y1="94.5999" x2="68.4638"
            y2="57.4514" gradientUnits="userSpaceOnUse">
            <stop offset="0.00289017" stop-color="#6C80AA" stop-opacity="0" />
            <stop offset="1" stop-color="#5D6A86" />
        </linearGradient>
        <linearGradient id="paint3_linear_17349_19579" x1="126.974" y1="104.759" x2="128.015"
            y2="57.5636" gradientUnits="userSpaceOnUse">
            <stop offset="0.00289017" stop-color="#314F91" stop-opacity="0" />
            <stop offset="1" stop-color="#324264" />
        </linearGradient>
        <linearGradient id="paint4_linear_17349_19579" x1="21.3021" y1="0.340812" x2="21.3021"
            y2="5.84746" gradientUnits="userSpaceOnUse">
            <stop stop-color="#B0BACC" />
            <stop offset="1" stop-color="#969EAE" />
        </linearGradient>
        <linearGradient id="paint5_linear_17349_19579" x1="28.7317" y1="85.6396" x2="28.7317"
            y2="91.1463" gradientUnits="userSpaceOnUse">
            <stop stop-color="#B0BACC" />
            <stop offset="1" stop-color="#969EAE" />
        </linearGradient>
        <linearGradient id="paint6_linear_17349_19579" x1="177.38" y1="82.1481" x2="173.968"
            y2="88.8713" gradientUnits="userSpaceOnUse">
            <stop stop-color="#B0BACC" />
            <stop offset="1" stop-color="#969EAE" />
        </linearGradient>
    </defs>
</svg>
